<svg xmlns="http://www.w3.org/2000/svg" width="200" viewBox="0 0 200 55.1"><title>Asset 2</title><path d="M5.6,8.6,8,.2h3.1l-4,12.4H4L0,.2H3.3Z" style="fill:#fff"/><path d="M14.1,12.7H12.5V.2h3.1V12.6Z" style="fill:#fff"/><path d="M20,12.6H17.1L20.9.2h3.3L28,12.6H24.8l-.6-2.4-1,.2H21.5l-.8-.2Zm2.5-9.1L21.3,7.9l.6.2H23l.6-.2Z" style="fill:#fff"/><path d="M35.4,5.9h3v6.3a8.4,8.4,0,0,1-2,.5H34.7a5.9,5.9,0,0,1-2.7-.5A5,5,0,0,1,30.1,11,4.3,4.3,0,0,1,29,9a7.1,7.1,0,0,1-.4-2.6A6.9,6.9,0,0,1,29,3.9a5.3,5.3,0,0,1,1.1-2.1A5.3,5.3,0,0,1,32,.5,6.6,6.6,0,0,1,34.5,0h1.6l1.6.5A5.9,5.9,0,0,1,37.5,2,5.8,5.8,0,0,1,37,3.1l-.6-.2H34.7a2.6,2.6,0,0,0-2.1.9,4.7,4.7,0,0,0-.8,2.8,4.3,4.3,0,0,0,.8,2.8,2.7,2.7,0,0,0,2.2.9h.6Z" style="fill:#fff"/><path d="M46.9,5.9h3v6.3a8.4,8.4,0,0,1-2,.5H46.2a5.9,5.9,0,0,1-2.7-.5A4.3,4.3,0,0,1,41.6,11a5.6,5.6,0,0,1-1.2-2,10.3,10.3,0,0,1-.3-2.6,6.9,6.9,0,0,1,.4-2.5,5.3,5.3,0,0,1,1.1-2.1A5.3,5.3,0,0,1,43.5.5,6.2,6.2,0,0,1,46,0h1.6l1.6.5A3.2,3.2,0,0,1,48.9,2a6.6,6.6,0,0,1-.4,1.1l-.6-.2H46.2a2.6,2.6,0,0,0-2.1.9,4.7,4.7,0,0,0-.8,2.8,4.3,4.3,0,0,0,.8,2.8,2.7,2.7,0,0,0,2.2.9h.6Z" style="fill:#fff"/><path d="M53.7,12.7H52.1V.2h3.1V12.6Z" style="fill:#fff"/><path d="M57.2,6.5a10.3,10.3,0,0,1,.3-2.6,6.8,6.8,0,0,1,1-2.1A4.5,4.5,0,0,1,60.2.5,6,6,0,0,1,62.6,0a6.2,6.2,0,0,1,2.5.5,5.5,5.5,0,0,1,1.7,1.3,6.7,6.7,0,0,1,.9,2.1,7.1,7.1,0,0,1,.4,2.6A6.9,6.9,0,0,1,67.7,9a5.3,5.3,0,0,1-.9,2,4.6,4.6,0,0,1-1.7,1.4,6.2,6.2,0,0,1-2.5.4,6.1,6.1,0,0,1-2.4-.4A3.9,3.9,0,0,1,58.5,11a5.4,5.4,0,0,1-1-2A10.1,10.1,0,0,1,57.2,6.5Zm7.7,0c0-2.5-.8-3.8-2.2-3.8S60.4,4,60.4,6.5A5.3,5.3,0,0,0,61,9.3a1.7,1.7,0,0,0,1.6.9C64.1,10.2,64.9,9,64.9,6.5Z" style="fill:#fff"/><path d="M75.5,12.7H74V.2h3V12.6Z" style="fill:#fff"/><path d="M79.4.2H82L86,7V.2h2.8V12.6H86.3L82.2,5.8v6.8H79.4Z" style="fill:#fff"/><path d="M96.5,12.7H95V.2h3V12.6Z" style="fill:#fff"/><path d="M105.3,5l1.3.6a3.9,3.9,0,0,1,1,.8,3.3,3.3,0,0,1,.6,1,3.2,3.2,0,0,1,.2,1.4,4.7,4.7,0,0,1-.3,1.7,2.7,2.7,0,0,1-.9,1.2,4.2,4.2,0,0,1-1.6.9l-2,.2h-1.9a6.4,6.4,0,0,1-1.8-.6,6.9,6.9,0,0,1,.2-1.3l.4-1.3a8.3,8.3,0,0,0,2.8.6,2.8,2.8,0,0,0,1.4-.2,1.1,1.1,0,0,0,.5-.9,4.3,4.3,0,0,0-.1-.5l-.3-.4-.4-.2-.4-.2-1-.3-1.1-.6a2.2,2.2,0,0,1-.9-.7l-.6-1a5.1,5.1,0,0,1-.2-1.3,4.1,4.1,0,0,1,.3-1.6,3.8,3.8,0,0,1,.9-1.2,3.1,3.1,0,0,1,1.4-.7,4.8,4.8,0,0,1,1.8-.3l1.7.2,1.7.5a7.4,7.4,0,0,1-.2,1.2c-.2.4-.3.9-.5,1.2l-1-.4-1.6-.2h-.5l-.4.2a.3.3,0,0,0-.3.3.8.8,0,0,0-.2.5.8.8,0,0,0,.4.7l.7.4Z" style="fill:#fff"/><path d="M110.4.2h3l2,.2a4.4,4.4,0,0,1,1.6.6A4.9,4.9,0,0,1,118.3,2a4.2,4.2,0,0,1,.4,2,4.9,4.9,0,0,1-.1,1.2l-.4.9-.5.7-.6.5,2.7,5.3h-3.4L114,6.9h.1l.5-.3.4-.6a2.5,2.5,0,0,0,.4-.7,2.8,2.8,0,0,0,.1-.9,1.7,1.7,0,0,0-.4-1.3,2.8,2.8,0,0,0-1.2-.4h-.5v9.9h-3Z" style="fill:#fff"/><path d="M123.8,12.6h-3L124.7.2h3.2l3.8,12.4h-3.1l-.7-2.4-.9.2h-1.7l-.8-.2Zm2.4-9.1-1.1,4.4.5.2h1.1l.6-.2Z" style="fill:#fff"/><path d="M139.7,6.2a6.2,6.2,0,0,1-.1,1.3h-3.4V10h4.4a5.7,5.7,0,0,1,.1,1.3,5.7,5.7,0,0,1-.1,1.3h-7.4V.2h7.3c0,.3.1.5.1.7v.6a7.1,7.1,0,0,1-.1,1.4h-4.3V4.8h3.4A7.1,7.1,0,0,1,139.7,6.2Z" style="fill:#fff"/><path d="M142.7.2h3V9.9h4a2.5,2.5,0,0,1,.1.8,1.3,1.3,0,0,1,.1.6,1.5,1.5,0,0,1-.1.6,2,2,0,0,1-.1.7h-7Z" style="fill:#fff"/><path d="M157.9,6.2a6.2,6.2,0,0,1-.1,1.3h-3.3V10h4.3a5.9,5.9,0,0,1,.2,1.3,5.9,5.9,0,0,1-.2,1.3h-7.4V.2h7.3c0,.3.1.5.1.7v.6a7.1,7.1,0,0,1-.1,1.4h-4.2V4.8h3.3A7.1,7.1,0,0,1,157.9,6.2Z" style="fill:#fff"/><path d="M167.6,6.4c0,2.5,1,3.7,3,3.7h1.1l1.2-.3a7.2,7.2,0,0,1,.7,2.5,3.2,3.2,0,0,1-.9.3l-.8.2h-1.6a5.3,5.3,0,0,1-2.6-.5,5,5,0,0,1-1.9-1.3,5.5,5.5,0,0,1-1.1-2,10.1,10.1,0,0,1-.4-2.6,10.1,10.1,0,0,1,.4-2.5,7.2,7.2,0,0,1,1.2-2.1A5.9,5.9,0,0,1,167.7.5a7,7,0,0,1,2.5-.5h1.6l1.7.5a7,7,0,0,1-.3,1.4,3.7,3.7,0,0,1-.5,1.1l-.6-.2h-1.6a2.8,2.8,0,0,0-2.2.9A4.7,4.7,0,0,0,167.6,6.4Z" style="fill:#fff"/><path d="M174.6,6.5a7.1,7.1,0,0,1,.4-2.6,6.7,6.7,0,0,1,.9-2.1A5.5,5.5,0,0,1,177.6.5a6.2,6.2,0,0,1,2.5-.5,6,6,0,0,1,2.4.5,4.5,4.5,0,0,1,1.7,1.3,6.8,6.8,0,0,1,1,2.1,10.3,10.3,0,0,1,.3,2.6,10.1,10.1,0,0,1-.3,2.5,5.4,5.4,0,0,1-1,2,3.9,3.9,0,0,1-1.7,1.4,6.1,6.1,0,0,1-2.4.4,6.2,6.2,0,0,1-2.5-.4,4.6,4.6,0,0,1-1.7-1.4,5.3,5.3,0,0,1-.9-2A6.9,6.9,0,0,1,174.6,6.5Zm7.7,0c0-2.5-.7-3.8-2.2-3.8s-2.3,1.3-2.3,3.8a5.3,5.3,0,0,0,.6,2.8,1.9,1.9,0,0,0,1.7.9C181.6,10.2,182.3,9,182.3,6.5Z" style="fill:#fff"/><path d="M187.5.2H190L194,7V.2h2.8V12.6h-2.5l-4-6.8v6.8h-2.8Z" style="fill:#fff"/><path d="M0,46.9H3.8V26.5H0V18.9H18.2v7.6H14.5V46.9h3.7v7.6H0Z" style="fill:#fff"/><path d="M31.4,41.4v2.2c0,1.5,1.9,2.3,4.2,2.3s3.7-.8,3.7-2-3.8-2.8-7.2-4.2c-4.9-1.9-9.3-4.1-9.3-10.6,0-8.5,6.9-10.8,13.5-10.8s12.6,2.3,12.6,7.2v5.6H39.5V29.2c0-1.2-1.3-1.7-3.2-1.7s-2.8.4-2.8,1.6,2.6,2.7,5.5,3.7c5.6,1.8,11.1,4,11.1,10.8,0,8.7-7.6,11.5-14.5,11.5s-13.7-3.2-13.7-9.2V41.4Z" style="fill:#fff"/><path d="M52,46.9h2.7l9-28H75.9l9,28h2.7v7.6H71.5V46.9h2.8l-.7-3.3H66l-.7,3.3h2.8v7.6H52ZM72,36.6l-1.2-4.9c-.3-1.4-.5-2.6-.6-3.4l-.3-1.4h-.2l-.2,1.4-.7,3.4-1.2,4.9Z" style="fill:#fff"/><path d="M107.1,18.3c4.4,0,14.8,1.4,14.8,7.1v6.3h-9.5V28.9c0-1.5-2.8-1.7-4.8-1.7-4.9,0-8.2,2.8-8.2,8.8s3.7,10.2,8.8,10.2c2,0,4.6-.3,4.6-1.8V41.7h9.5v6.4c0,5.5-10,7-14.9,7-11,0-19.1-8-19.1-18.4S96.6,18.3,107.1,18.3Z" style="fill:#fff"/><path d="M144.1,18.3c4.3,0,14.7,1.4,14.7,7.1v6.3h-9.4V28.9c0-1.5-2.9-1.7-4.9-1.7-4.9,0-8.2,2.8-8.2,8.8s3.7,10.2,8.8,10.2c2,0,4.6-.3,4.6-1.8V41.7h9.5v6.4c0,5.5-9.9,7-14.9,7-11,0-19.1-8-19.1-18.4S133.5,18.3,144.1,18.3Z" style="fill:#fff"/><path d="M181.1,18.3c11.1,0,18.9,8,18.9,18.2s-7.8,18.6-18.9,18.6-19-8.2-19-18.6S170,18.3,181.1,18.3Zm0,27.6c4.3,0,7.8-4.1,7.8-9.4s-3.5-9-7.8-9-7.9,3.8-7.9,9S176.8,45.9,181.1,45.9Z" style="fill:#fff"/></svg>